<mxfile host="app.diagrams.net" modified="2020-06-07T13:24:07.099Z" agent="5.0 (Windows NT 10.0; WOW64) AppleWebKit/537.36 (KHTML, like Gecko) Chrome/83.0.4103.61 Safari/537.36" etag="7hZdZF9oDUPWnw6lSgwH" version="13.1.14" type="github">
  <diagram id="C5RBs43oDa-KdzZeNtuy" name="Page-1">
    <mxGraphModel dx="3152" dy="3543" grid="1" gridSize="10" guides="1" tooltips="1" connect="1" arrows="1" fold="1" page="1" pageScale="1" pageWidth="827" pageHeight="1169" math="0" shadow="0">
      <root>
        <mxCell id="WIyWlLk6GJQsqaUBKTNV-0" />
        <mxCell id="WIyWlLk6GJQsqaUBKTNV-1" parent="WIyWlLk6GJQsqaUBKTNV-0" />
        <mxCell id="NjmbRGrfVWamxlCIH4hR-33" value="M" style="text;html=1;resizable=0;autosize=1;align=center;verticalAlign=middle;points=[];fillColor=none;strokeColor=none;rounded=0;" vertex="1" parent="WIyWlLk6GJQsqaUBKTNV-1">
          <mxGeometry x="-715" y="-530" width="30" height="20" as="geometry" />
        </mxCell>
        <mxCell id="NjmbRGrfVWamxlCIH4hR-68" value="1" style="edgeStyle=orthogonalEdgeStyle;rounded=0;orthogonalLoop=1;jettySize=auto;html=1;entryX=0.005;entryY=-0.064;entryDx=0;entryDy=0;entryPerimeter=0;" edge="1" parent="WIyWlLk6GJQsqaUBKTNV-1" source="NjmbRGrfVWamxlCIH4hR-47" target="NjmbRGrfVWamxlCIH4hR-27">
          <mxGeometry relative="1" as="geometry" />
        </mxCell>
        <mxCell id="NjmbRGrfVWamxlCIH4hR-69" value="M" style="text;html=1;resizable=0;autosize=1;align=center;verticalAlign=middle;points=[];fillColor=none;strokeColor=none;rounded=0;" vertex="1" parent="WIyWlLk6GJQsqaUBKTNV-1">
          <mxGeometry x="-1040" y="-550" width="30" height="20" as="geometry" />
        </mxCell>
        <mxCell id="NjmbRGrfVWamxlCIH4hR-39" value="customer" style="swimlane;fontStyle=1;align=center;verticalAlign=top;childLayout=stackLayout;horizontal=1;startSize=26;horizontalStack=0;resizeParent=1;resizeParentMax=0;resizeLast=0;collapsible=1;marginBottom=0;strokeColor=#000000;" vertex="1" parent="WIyWlLk6GJQsqaUBKTNV-1">
          <mxGeometry x="-1470" y="-700" width="260" height="408" as="geometry">
            <mxRectangle x="-930" y="-690" width="100" height="26" as="alternateBounds" />
          </mxGeometry>
        </mxCell>
        <mxCell id="NjmbRGrfVWamxlCIH4hR-40" value="id:string  - cust_id" style="text;strokeColor=none;fillColor=none;align=left;verticalAlign=top;spacingLeft=4;spacingRight=4;overflow=hidden;rotatable=0;points=[[0,0.5],[1,0.5]];portConstraint=eastwest;" vertex="1" parent="NjmbRGrfVWamxlCIH4hR-39">
          <mxGeometry y="26" width="260" height="26" as="geometry" />
        </mxCell>
        <mxCell id="NjmbRGrfVWamxlCIH4hR-41" value="name:string  - cust_name" style="text;strokeColor=none;fillColor=none;align=left;verticalAlign=top;spacingLeft=4;spacingRight=4;overflow=hidden;rotatable=0;points=[[0,0.5],[1,0.5]];portConstraint=eastwest;" vertex="1" parent="NjmbRGrfVWamxlCIH4hR-39">
          <mxGeometry y="52" width="260" height="26" as="geometry" />
        </mxCell>
        <mxCell id="NjmbRGrfVWamxlCIH4hR-42" value="email:string  - cust_email" style="text;strokeColor=none;fillColor=none;align=left;verticalAlign=top;spacingLeft=4;spacingRight=4;overflow=hidden;rotatable=0;points=[[0,0.5],[1,0.5]];portConstraint=eastwest;" vertex="1" parent="NjmbRGrfVWamxlCIH4hR-39">
          <mxGeometry y="78" width="260" height="26" as="geometry" />
        </mxCell>
        <mxCell id="NjmbRGrfVWamxlCIH4hR-43" value="mobile:int  - cust_mobile" style="text;strokeColor=none;fillColor=none;align=left;verticalAlign=top;spacingLeft=4;spacingRight=4;overflow=hidden;rotatable=0;points=[[0,0.5],[1,0.5]];portConstraint=eastwest;" vertex="1" parent="NjmbRGrfVWamxlCIH4hR-39">
          <mxGeometry y="104" width="260" height="26" as="geometry" />
        </mxCell>
        <mxCell id="NjmbRGrfVWamxlCIH4hR-44" value="alt_mobile: int  - cust_altmobile" style="text;strokeColor=none;fillColor=none;align=left;verticalAlign=top;spacingLeft=4;spacingRight=4;overflow=hidden;rotatable=0;points=[[0,0.5],[1,0.5]];portConstraint=eastwest;" vertex="1" parent="NjmbRGrfVWamxlCIH4hR-39">
          <mxGeometry y="130" width="260" height="26" as="geometry" />
        </mxCell>
        <mxCell id="NjmbRGrfVWamxlCIH4hR-45" value="address:string - cust_address" style="text;strokeColor=none;fillColor=none;align=left;verticalAlign=top;spacingLeft=4;spacingRight=4;overflow=hidden;rotatable=0;points=[[0,0.5],[1,0.5]];portConstraint=eastwest;" vertex="1" parent="NjmbRGrfVWamxlCIH4hR-39">
          <mxGeometry y="156" width="260" height="26" as="geometry" />
        </mxCell>
        <mxCell id="NjmbRGrfVWamxlCIH4hR-49" value="dob: date - cust_dob" style="text;strokeColor=none;fillColor=none;align=left;verticalAlign=top;spacingLeft=4;spacingRight=4;overflow=hidden;rotatable=0;points=[[0,0.5],[1,0.5]];portConstraint=eastwest;" vertex="1" parent="NjmbRGrfVWamxlCIH4hR-39">
          <mxGeometry y="182" width="260" height="26" as="geometry" />
        </mxCell>
        <mxCell id="NjmbRGrfVWamxlCIH4hR-76" value="status- string: cust_status" style="text;strokeColor=none;fillColor=none;align=left;verticalAlign=top;spacingLeft=4;spacingRight=4;overflow=hidden;rotatable=0;points=[[0,0.5],[1,0.5]];portConstraint=eastwest;" vertex="1" parent="NjmbRGrfVWamxlCIH4hR-39">
          <mxGeometry y="208" width="260" height="26" as="geometry" />
        </mxCell>
        <mxCell id="NjmbRGrfVWamxlCIH4hR-46" value="" style="line;strokeWidth=1;fillColor=none;align=left;verticalAlign=middle;spacingTop=-1;spacingLeft=3;spacingRight=3;rotatable=0;labelPosition=right;points=[];portConstraint=eastwest;" vertex="1" parent="NjmbRGrfVWamxlCIH4hR-39">
          <mxGeometry y="234" width="260" height="18" as="geometry" />
        </mxCell>
        <mxCell id="NjmbRGrfVWamxlCIH4hR-47" value="+searchTitle(prod_category||prod_name)" style="text;strokeColor=none;fillColor=none;align=left;verticalAlign=top;spacingLeft=4;spacingRight=4;overflow=hidden;rotatable=0;points=[[0,0.5],[1,0.5]];portConstraint=eastwest;" vertex="1" parent="NjmbRGrfVWamxlCIH4hR-39">
          <mxGeometry y="252" width="260" height="26" as="geometry" />
        </mxCell>
        <mxCell id="NjmbRGrfVWamxlCIH4hR-71" value="+selectProduct(prod_id)" style="text;strokeColor=none;fillColor=none;align=left;verticalAlign=top;spacingLeft=4;spacingRight=4;overflow=hidden;rotatable=0;points=[[0,0.5],[1,0.5]];portConstraint=eastwest;" vertex="1" parent="NjmbRGrfVWamxlCIH4hR-39">
          <mxGeometry y="278" width="260" height="26" as="geometry" />
        </mxCell>
        <mxCell id="NjmbRGrfVWamxlCIH4hR-77" value="+updateProfile()" style="text;strokeColor=none;fillColor=none;align=left;verticalAlign=top;spacingLeft=4;spacingRight=4;overflow=hidden;rotatable=0;points=[[0,0.5],[1,0.5]];portConstraint=eastwest;" vertex="1" parent="NjmbRGrfVWamxlCIH4hR-39">
          <mxGeometry y="304" width="260" height="26" as="geometry" />
        </mxCell>
        <mxCell id="NjmbRGrfVWamxlCIH4hR-72" value="+addToCart(prod_id)" style="text;strokeColor=none;fillColor=none;align=left;verticalAlign=top;spacingLeft=4;spacingRight=4;overflow=hidden;rotatable=0;points=[[0,0.5],[1,0.5]];portConstraint=eastwest;" vertex="1" parent="NjmbRGrfVWamxlCIH4hR-39">
          <mxGeometry y="330" width="260" height="26" as="geometry" />
        </mxCell>
        <mxCell id="NjmbRGrfVWamxlCIH4hR-74" value="+makepayment(COD)" style="text;strokeColor=none;fillColor=none;align=left;verticalAlign=top;spacingLeft=4;spacingRight=4;overflow=hidden;rotatable=0;points=[[0,0.5],[1,0.5]];portConstraint=eastwest;" vertex="1" parent="NjmbRGrfVWamxlCIH4hR-39">
          <mxGeometry y="356" width="260" height="26" as="geometry" />
        </mxCell>
        <mxCell id="NjmbRGrfVWamxlCIH4hR-75" value="+checkout&#xa;" style="text;strokeColor=none;fillColor=none;align=left;verticalAlign=top;spacingLeft=4;spacingRight=4;overflow=hidden;rotatable=0;points=[[0,0.5],[1,0.5]];portConstraint=eastwest;" vertex="1" parent="NjmbRGrfVWamxlCIH4hR-39">
          <mxGeometry y="382" width="260" height="26" as="geometry" />
        </mxCell>
        <mxCell id="NjmbRGrfVWamxlCIH4hR-83" style="edgeStyle=orthogonalEdgeStyle;rounded=0;orthogonalLoop=1;jettySize=auto;html=1;" edge="1" parent="WIyWlLk6GJQsqaUBKTNV-1" source="NjmbRGrfVWamxlCIH4hR-63" target="NjmbRGrfVWamxlCIH4hR-39">
          <mxGeometry relative="1" as="geometry" />
        </mxCell>
        <mxCell id="NjmbRGrfVWamxlCIH4hR-54" value="user" style="swimlane;fontStyle=1;align=center;verticalAlign=top;childLayout=stackLayout;horizontal=1;startSize=26;horizontalStack=0;resizeParent=1;resizeParentMax=0;resizeLast=0;collapsible=1;marginBottom=0;strokeColor=#000000;" vertex="1" parent="WIyWlLk6GJQsqaUBKTNV-1">
          <mxGeometry x="-960" y="-1300" width="210" height="268" as="geometry" />
        </mxCell>
        <mxCell id="NjmbRGrfVWamxlCIH4hR-55" value="id: string - auto_generated" style="text;strokeColor=none;fillColor=none;align=left;verticalAlign=top;spacingLeft=4;spacingRight=4;overflow=hidden;rotatable=0;points=[[0,0.5],[1,0.5]];portConstraint=eastwest;" vertex="1" parent="NjmbRGrfVWamxlCIH4hR-54">
          <mxGeometry y="26" width="210" height="26" as="geometry" />
        </mxCell>
        <mxCell id="NjmbRGrfVWamxlCIH4hR-58" value="username : string - user_username" style="text;strokeColor=none;fillColor=none;align=left;verticalAlign=top;spacingLeft=4;spacingRight=4;overflow=hidden;rotatable=0;points=[[0,0.5],[1,0.5]];portConstraint=eastwest;" vertex="1" parent="NjmbRGrfVWamxlCIH4hR-54">
          <mxGeometry y="52" width="210" height="26" as="geometry" />
        </mxCell>
        <mxCell id="NjmbRGrfVWamxlCIH4hR-60" value="email: string - user_email" style="text;strokeColor=none;fillColor=none;align=left;verticalAlign=top;spacingLeft=4;spacingRight=4;overflow=hidden;rotatable=0;points=[[0,0.5],[1,0.5]];portConstraint=eastwest;" vertex="1" parent="NjmbRGrfVWamxlCIH4hR-54">
          <mxGeometry y="78" width="210" height="26" as="geometry" />
        </mxCell>
        <mxCell id="NjmbRGrfVWamxlCIH4hR-59" value="password : string - user_password" style="text;strokeColor=none;fillColor=none;align=left;verticalAlign=top;spacingLeft=4;spacingRight=4;overflow=hidden;rotatable=0;points=[[0,0.5],[1,0.5]];portConstraint=eastwest;" vertex="1" parent="NjmbRGrfVWamxlCIH4hR-54">
          <mxGeometry y="104" width="210" height="26" as="geometry" />
        </mxCell>
        <mxCell id="NjmbRGrfVWamxlCIH4hR-62" value="type: string - user_type" style="text;strokeColor=none;fillColor=none;align=left;verticalAlign=top;spacingLeft=4;spacingRight=4;overflow=hidden;rotatable=0;points=[[0,0.5],[1,0.5]];portConstraint=eastwest;" vertex="1" parent="NjmbRGrfVWamxlCIH4hR-54">
          <mxGeometry y="130" width="210" height="26" as="geometry" />
        </mxCell>
        <mxCell id="NjmbRGrfVWamxlCIH4hR-63" value="status: string - user_status" style="text;strokeColor=none;fillColor=none;align=left;verticalAlign=top;spacingLeft=4;spacingRight=4;overflow=hidden;rotatable=0;points=[[0,0.5],[1,0.5]];portConstraint=eastwest;" vertex="1" parent="NjmbRGrfVWamxlCIH4hR-54">
          <mxGeometry y="156" width="210" height="26" as="geometry" />
        </mxCell>
        <mxCell id="NjmbRGrfVWamxlCIH4hR-56" value="" style="line;strokeWidth=1;fillColor=none;align=left;verticalAlign=middle;spacingTop=-1;spacingLeft=3;spacingRight=3;rotatable=0;labelPosition=right;points=[];portConstraint=eastwest;" vertex="1" parent="NjmbRGrfVWamxlCIH4hR-54">
          <mxGeometry y="182" width="210" height="8" as="geometry" />
        </mxCell>
        <mxCell id="NjmbRGrfVWamxlCIH4hR-57" value="+ login(username||email , password)" style="text;strokeColor=none;fillColor=none;align=left;verticalAlign=top;spacingLeft=4;spacingRight=4;overflow=hidden;rotatable=0;points=[[0,0.5],[1,0.5]];portConstraint=eastwest;" vertex="1" parent="NjmbRGrfVWamxlCIH4hR-54">
          <mxGeometry y="190" width="210" height="26" as="geometry" />
        </mxCell>
        <mxCell id="NjmbRGrfVWamxlCIH4hR-61" value="+ register()" style="text;strokeColor=none;fillColor=none;align=left;verticalAlign=top;spacingLeft=4;spacingRight=4;overflow=hidden;rotatable=0;points=[[0,0.5],[1,0.5]];portConstraint=eastwest;" vertex="1" parent="NjmbRGrfVWamxlCIH4hR-54">
          <mxGeometry y="216" width="210" height="26" as="geometry" />
        </mxCell>
        <mxCell id="NjmbRGrfVWamxlCIH4hR-64" value="+ activateUser(id)" style="text;strokeColor=none;fillColor=none;align=left;verticalAlign=top;spacingLeft=4;spacingRight=4;overflow=hidden;rotatable=0;points=[[0,0.5],[1,0.5]];portConstraint=eastwest;" vertex="1" parent="NjmbRGrfVWamxlCIH4hR-54">
          <mxGeometry y="242" width="210" height="26" as="geometry" />
        </mxCell>
        <mxCell id="NjmbRGrfVWamxlCIH4hR-21" value="transaction" style="swimlane;fontStyle=1;align=center;verticalAlign=top;childLayout=stackLayout;horizontal=1;startSize=26;horizontalStack=0;resizeParent=1;resizeParentMax=0;resizeLast=0;collapsible=1;marginBottom=0;strokeColor=#00FF00;" vertex="1" parent="WIyWlLk6GJQsqaUBKTNV-1">
          <mxGeometry x="-970" y="-630" width="220" height="304" as="geometry">
            <mxRectangle x="-930" y="-690" width="100" height="26" as="alternateBounds" />
          </mxGeometry>
        </mxCell>
        <mxCell id="NjmbRGrfVWamxlCIH4hR-22" value="id:string  - transaction_id" style="text;strokeColor=none;fillColor=none;align=left;verticalAlign=top;spacingLeft=4;spacingRight=4;overflow=hidden;rotatable=0;points=[[0,0.5],[1,0.5]];portConstraint=eastwest;" vertex="1" parent="NjmbRGrfVWamxlCIH4hR-21">
          <mxGeometry y="26" width="220" height="26" as="geometry" />
        </mxCell>
        <mxCell id="NjmbRGrfVWamxlCIH4hR-100" value="cust_id:string  - cust_id" style="text;strokeColor=none;fillColor=none;align=left;verticalAlign=top;spacingLeft=4;spacingRight=4;overflow=hidden;rotatable=0;points=[[0,0.5],[1,0.5]];portConstraint=eastwest;" vertex="1" parent="NjmbRGrfVWamxlCIH4hR-21">
          <mxGeometry y="52" width="220" height="26" as="geometry" />
        </mxCell>
        <mxCell id="NjmbRGrfVWamxlCIH4hR-25" value="prod_id:string  - prod_id" style="text;strokeColor=none;fillColor=none;align=left;verticalAlign=top;spacingLeft=4;spacingRight=4;overflow=hidden;rotatable=0;points=[[0,0.5],[1,0.5]];portConstraint=eastwest;" vertex="1" parent="NjmbRGrfVWamxlCIH4hR-21">
          <mxGeometry y="78" width="220" height="26" as="geometry" />
        </mxCell>
        <mxCell id="NjmbRGrfVWamxlCIH4hR-27" value="stock:int  - prod_stock" style="text;strokeColor=none;fillColor=none;align=left;verticalAlign=top;spacingLeft=4;spacingRight=4;overflow=hidden;rotatable=0;points=[[0,0.5],[1,0.5]];portConstraint=eastwest;" vertex="1" parent="NjmbRGrfVWamxlCIH4hR-21">
          <mxGeometry y="104" width="220" height="26" as="geometry" />
        </mxCell>
        <mxCell id="NjmbRGrfVWamxlCIH4hR-28" value="date:Date  - buy_quantity" style="text;strokeColor=none;fillColor=none;align=left;verticalAlign=top;spacingLeft=4;spacingRight=4;overflow=hidden;rotatable=0;points=[[0,0.5],[1,0.5]];portConstraint=eastwest;" vertex="1" parent="NjmbRGrfVWamxlCIH4hR-21">
          <mxGeometry y="130" width="220" height="26" as="geometry" />
        </mxCell>
        <mxCell id="NjmbRGrfVWamxlCIH4hR-78" value="status: int  - prod_status" style="text;strokeColor=none;fillColor=none;align=left;verticalAlign=top;spacingLeft=4;spacingRight=4;overflow=hidden;rotatable=0;points=[[0,0.5],[1,0.5]];portConstraint=eastwest;" vertex="1" parent="NjmbRGrfVWamxlCIH4hR-21">
          <mxGeometry y="156" width="220" height="26" as="geometry" />
        </mxCell>
        <mxCell id="NjmbRGrfVWamxlCIH4hR-80" value="payment: int  - prod_status" style="text;strokeColor=none;fillColor=none;align=left;verticalAlign=top;spacingLeft=4;spacingRight=4;overflow=hidden;rotatable=0;points=[[0,0.5],[1,0.5]];portConstraint=eastwest;" vertex="1" parent="NjmbRGrfVWamxlCIH4hR-21">
          <mxGeometry y="182" width="220" height="26" as="geometry" />
        </mxCell>
        <mxCell id="NjmbRGrfVWamxlCIH4hR-29" value="+quantity:int  - buy_quantity" style="text;strokeColor=none;fillColor=none;align=left;verticalAlign=top;spacingLeft=4;spacingRight=4;overflow=hidden;rotatable=0;points=[[0,0.5],[1,0.5]];portConstraint=eastwest;" vertex="1" parent="NjmbRGrfVWamxlCIH4hR-21">
          <mxGeometry y="208" width="220" height="26" as="geometry" />
        </mxCell>
        <mxCell id="NjmbRGrfVWamxlCIH4hR-23" value="" style="line;strokeWidth=1;fillColor=none;align=left;verticalAlign=middle;spacingTop=-1;spacingLeft=3;spacingRight=3;rotatable=0;labelPosition=right;points=[];portConstraint=eastwest;" vertex="1" parent="NjmbRGrfVWamxlCIH4hR-21">
          <mxGeometry y="234" width="220" height="18" as="geometry" />
        </mxCell>
        <mxCell id="NjmbRGrfVWamxlCIH4hR-36" value="+buy_products" style="text;strokeColor=none;fillColor=none;align=left;verticalAlign=top;spacingLeft=4;spacingRight=4;overflow=hidden;rotatable=0;points=[[0,0.5],[1,0.5]];portConstraint=eastwest;" vertex="1" parent="NjmbRGrfVWamxlCIH4hR-21">
          <mxGeometry y="252" width="220" height="26" as="geometry" />
        </mxCell>
        <mxCell id="NjmbRGrfVWamxlCIH4hR-81" value="+print_receipt" style="text;strokeColor=none;fillColor=none;align=left;verticalAlign=top;spacingLeft=4;spacingRight=4;overflow=hidden;rotatable=0;points=[[0,0.5],[1,0.5]];portConstraint=eastwest;" vertex="1" parent="NjmbRGrfVWamxlCIH4hR-21">
          <mxGeometry y="278" width="220" height="26" as="geometry" />
        </mxCell>
        <mxCell id="NjmbRGrfVWamxlCIH4hR-2" value="Product" style="swimlane;fontStyle=1;align=center;verticalAlign=top;childLayout=stackLayout;horizontal=1;startSize=26;horizontalStack=0;resizeParent=1;resizeParentMax=0;resizeLast=0;collapsible=1;marginBottom=0;" vertex="1" parent="WIyWlLk6GJQsqaUBKTNV-1">
          <mxGeometry x="-520" y="-610" width="270" height="360" as="geometry" />
        </mxCell>
        <mxCell id="NjmbRGrfVWamxlCIH4hR-3" value="- id: string  - prod_id" style="text;strokeColor=none;fillColor=none;align=left;verticalAlign=top;spacingLeft=4;spacingRight=4;overflow=hidden;rotatable=0;points=[[0,0.5],[1,0.5]];portConstraint=eastwest;" vertex="1" parent="NjmbRGrfVWamxlCIH4hR-2">
          <mxGeometry y="26" width="270" height="26" as="geometry" />
        </mxCell>
        <mxCell id="NjmbRGrfVWamxlCIH4hR-6" value="- name: string - prod_name" style="text;strokeColor=none;fillColor=none;align=left;verticalAlign=top;spacingLeft=4;spacingRight=4;overflow=hidden;rotatable=0;points=[[0,0.5],[1,0.5]];portConstraint=eastwest;" vertex="1" parent="NjmbRGrfVWamxlCIH4hR-2">
          <mxGeometry y="52" width="270" height="26" as="geometry" />
        </mxCell>
        <mxCell id="NjmbRGrfVWamxlCIH4hR-7" value="- brand: string - prod_brand" style="text;strokeColor=none;fillColor=none;align=left;verticalAlign=top;spacingLeft=4;spacingRight=4;overflow=hidden;rotatable=0;points=[[0,0.5],[1,0.5]];portConstraint=eastwest;" vertex="1" parent="NjmbRGrfVWamxlCIH4hR-2">
          <mxGeometry y="78" width="270" height="26" as="geometry" />
        </mxCell>
        <mxCell id="NjmbRGrfVWamxlCIH4hR-99" value="- img: string - prod_img" style="text;strokeColor=none;fillColor=none;align=left;verticalAlign=top;spacingLeft=4;spacingRight=4;overflow=hidden;rotatable=0;points=[[0,0.5],[1,0.5]];portConstraint=eastwest;" vertex="1" parent="NjmbRGrfVWamxlCIH4hR-2">
          <mxGeometry y="104" width="270" height="26" as="geometry" />
        </mxCell>
        <mxCell id="NjmbRGrfVWamxlCIH4hR-82" value="- description: string - prod_description" style="text;strokeColor=none;fillColor=none;align=left;verticalAlign=top;spacingLeft=4;spacingRight=4;overflow=hidden;rotatable=0;points=[[0,0.5],[1,0.5]];portConstraint=eastwest;" vertex="1" parent="NjmbRGrfVWamxlCIH4hR-2">
          <mxGeometry y="130" width="270" height="26" as="geometry" />
        </mxCell>
        <mxCell id="NjmbRGrfVWamxlCIH4hR-8" value="- cost: double - prod_cost" style="text;strokeColor=none;fillColor=none;align=left;verticalAlign=top;spacingLeft=4;spacingRight=4;overflow=hidden;rotatable=0;points=[[0,0.5],[1,0.5]];portConstraint=eastwest;" vertex="1" parent="NjmbRGrfVWamxlCIH4hR-2">
          <mxGeometry y="156" width="270" height="26" as="geometry" />
        </mxCell>
        <mxCell id="NjmbRGrfVWamxlCIH4hR-9" value="- stock: int- prod_stock" style="text;strokeColor=none;fillColor=none;align=left;verticalAlign=top;spacingLeft=4;spacingRight=4;overflow=hidden;rotatable=0;points=[[0,0.5],[1,0.5]];portConstraint=eastwest;" vertex="1" parent="NjmbRGrfVWamxlCIH4hR-2">
          <mxGeometry y="182" width="270" height="26" as="geometry" />
        </mxCell>
        <mxCell id="NjmbRGrfVWamxlCIH4hR-16" value="&amp;nbsp;- category: string - prod_category" style="text;html=1;strokeColor=none;fillColor=none;align=left;verticalAlign=middle;whiteSpace=wrap;rounded=0;" vertex="1" parent="NjmbRGrfVWamxlCIH4hR-2">
          <mxGeometry y="208" width="270" height="20" as="geometry" />
        </mxCell>
        <mxCell id="NjmbRGrfVWamxlCIH4hR-4" value="" style="line;strokeWidth=1;fillColor=none;align=left;verticalAlign=middle;spacingTop=-1;spacingLeft=3;spacingRight=3;rotatable=0;labelPosition=right;points=[];portConstraint=eastwest;" vertex="1" parent="NjmbRGrfVWamxlCIH4hR-2">
          <mxGeometry y="228" width="270" height="8" as="geometry" />
        </mxCell>
        <mxCell id="NjmbRGrfVWamxlCIH4hR-5" value="+ buy" style="text;strokeColor=none;fillColor=none;align=left;verticalAlign=top;spacingLeft=4;spacingRight=4;overflow=hidden;rotatable=0;points=[[0,0.5],[1,0.5]];portConstraint=eastwest;" vertex="1" parent="NjmbRGrfVWamxlCIH4hR-2">
          <mxGeometry y="236" width="270" height="26" as="geometry" />
        </mxCell>
        <mxCell id="NjmbRGrfVWamxlCIH4hR-10" value="+ search(name? categories?)" style="text;strokeColor=none;fillColor=none;align=left;verticalAlign=top;spacingLeft=4;spacingRight=4;overflow=hidden;rotatable=0;points=[[0,0.5],[1,0.5]];portConstraint=eastwest;" vertex="1" parent="NjmbRGrfVWamxlCIH4hR-2">
          <mxGeometry y="262" width="270" height="26" as="geometry" />
        </mxCell>
        <mxCell id="NjmbRGrfVWamxlCIH4hR-12" value="+ retrieveProducts" style="text;strokeColor=none;fillColor=none;align=left;verticalAlign=top;spacingLeft=4;spacingRight=4;overflow=hidden;rotatable=0;points=[[0,0.5],[1,0.5]];portConstraint=eastwest;" vertex="1" parent="NjmbRGrfVWamxlCIH4hR-2">
          <mxGeometry y="288" width="270" height="24" as="geometry" />
        </mxCell>
        <mxCell id="NjmbRGrfVWamxlCIH4hR-15" value="+ retrieveByID(id)" style="text;strokeColor=none;fillColor=none;align=left;verticalAlign=top;spacingLeft=4;spacingRight=4;overflow=hidden;rotatable=0;points=[[0,0.5],[1,0.5]];portConstraint=eastwest;" vertex="1" parent="NjmbRGrfVWamxlCIH4hR-2">
          <mxGeometry y="312" width="270" height="24" as="geometry" />
        </mxCell>
        <mxCell id="NjmbRGrfVWamxlCIH4hR-17" value="+ retrieveByName(name)" style="text;strokeColor=none;fillColor=none;align=left;verticalAlign=top;spacingLeft=4;spacingRight=4;overflow=hidden;rotatable=0;points=[[0,0.5],[1,0.5]];portConstraint=eastwest;" vertex="1" parent="NjmbRGrfVWamxlCIH4hR-2">
          <mxGeometry y="336" width="270" height="24" as="geometry" />
        </mxCell>
        <mxCell id="NjmbRGrfVWamxlCIH4hR-101" value="1" style="edgeStyle=orthogonalEdgeStyle;rounded=0;orthogonalLoop=1;jettySize=auto;html=1;exitX=0;exitY=0.75;exitDx=0;exitDy=0;entryX=1.006;entryY=-0.159;entryDx=0;entryDy=0;entryPerimeter=0;" edge="1" parent="WIyWlLk6GJQsqaUBKTNV-1" source="NjmbRGrfVWamxlCIH4hR-16" target="NjmbRGrfVWamxlCIH4hR-28">
          <mxGeometry relative="1" as="geometry" />
        </mxCell>
        <mxCell id="NjmbRGrfVWamxlCIH4hR-102" style="edgeStyle=orthogonalEdgeStyle;rounded=0;orthogonalLoop=1;jettySize=auto;html=1;" edge="1" parent="WIyWlLk6GJQsqaUBKTNV-1" source="NjmbRGrfVWamxlCIH4hR-57" target="NjmbRGrfVWamxlCIH4hR-98">
          <mxGeometry relative="1" as="geometry" />
        </mxCell>
        <mxCell id="NjmbRGrfVWamxlCIH4hR-84" value="Store" style="swimlane;fontStyle=1;align=center;verticalAlign=top;childLayout=stackLayout;horizontal=1;startSize=26;horizontalStack=0;resizeParent=1;resizeParentMax=0;resizeLast=0;collapsible=1;marginBottom=0;" vertex="1" parent="WIyWlLk6GJQsqaUBKTNV-1">
          <mxGeometry x="-520" y="-1030" width="270" height="258" as="geometry" />
        </mxCell>
        <mxCell id="NjmbRGrfVWamxlCIH4hR-85" value="- id: string  - prod_id" style="text;strokeColor=none;fillColor=none;align=left;verticalAlign=top;spacingLeft=4;spacingRight=4;overflow=hidden;rotatable=0;points=[[0,0.5],[1,0.5]];portConstraint=eastwest;" vertex="1" parent="NjmbRGrfVWamxlCIH4hR-84">
          <mxGeometry y="26" width="270" height="26" as="geometry" />
        </mxCell>
        <mxCell id="NjmbRGrfVWamxlCIH4hR-86" value="- name: string - store_name" style="text;strokeColor=none;fillColor=none;align=left;verticalAlign=top;spacingLeft=4;spacingRight=4;overflow=hidden;rotatable=0;points=[[0,0.5],[1,0.5]];portConstraint=eastwest;" vertex="1" parent="NjmbRGrfVWamxlCIH4hR-84">
          <mxGeometry y="52" width="270" height="26" as="geometry" />
        </mxCell>
        <mxCell id="NjmbRGrfVWamxlCIH4hR-88" value="- description: string - store_description" style="text;strokeColor=none;fillColor=none;align=left;verticalAlign=top;spacingLeft=4;spacingRight=4;overflow=hidden;rotatable=0;points=[[0,0.5],[1,0.5]];portConstraint=eastwest;" vertex="1" parent="NjmbRGrfVWamxlCIH4hR-84">
          <mxGeometry y="78" width="270" height="26" as="geometry" />
        </mxCell>
        <mxCell id="NjmbRGrfVWamxlCIH4hR-98" value="- banner: string - store_banner" style="text;strokeColor=none;fillColor=none;align=left;verticalAlign=top;spacingLeft=4;spacingRight=4;overflow=hidden;rotatable=0;points=[[0,0.5],[1,0.5]];portConstraint=eastwest;" vertex="1" parent="NjmbRGrfVWamxlCIH4hR-84">
          <mxGeometry y="104" width="270" height="26" as="geometry" />
        </mxCell>
        <mxCell id="NjmbRGrfVWamxlCIH4hR-91" value="&amp;nbsp;- category: string - prod_category" style="text;html=1;strokeColor=none;fillColor=none;align=left;verticalAlign=middle;whiteSpace=wrap;rounded=0;" vertex="1" parent="NjmbRGrfVWamxlCIH4hR-84">
          <mxGeometry y="130" width="270" height="20" as="geometry" />
        </mxCell>
        <mxCell id="NjmbRGrfVWamxlCIH4hR-92" value="" style="line;strokeWidth=1;fillColor=none;align=left;verticalAlign=middle;spacingTop=-1;spacingLeft=3;spacingRight=3;rotatable=0;labelPosition=right;points=[];portConstraint=eastwest;" vertex="1" parent="NjmbRGrfVWamxlCIH4hR-84">
          <mxGeometry y="150" width="270" height="8" as="geometry" />
        </mxCell>
        <mxCell id="NjmbRGrfVWamxlCIH4hR-93" value="+ addProduct" style="text;strokeColor=none;fillColor=none;align=left;verticalAlign=top;spacingLeft=4;spacingRight=4;overflow=hidden;rotatable=0;points=[[0,0.5],[1,0.5]];portConstraint=eastwest;" vertex="1" parent="NjmbRGrfVWamxlCIH4hR-84">
          <mxGeometry y="158" width="270" height="26" as="geometry" />
        </mxCell>
        <mxCell id="NjmbRGrfVWamxlCIH4hR-94" value="+ removeProduct" style="text;strokeColor=none;fillColor=none;align=left;verticalAlign=top;spacingLeft=4;spacingRight=4;overflow=hidden;rotatable=0;points=[[0,0.5],[1,0.5]];portConstraint=eastwest;" vertex="1" parent="NjmbRGrfVWamxlCIH4hR-84">
          <mxGeometry y="184" width="270" height="26" as="geometry" />
        </mxCell>
        <mxCell id="NjmbRGrfVWamxlCIH4hR-95" value="+ editProduct" style="text;strokeColor=none;fillColor=none;align=left;verticalAlign=top;spacingLeft=4;spacingRight=4;overflow=hidden;rotatable=0;points=[[0,0.5],[1,0.5]];portConstraint=eastwest;" vertex="1" parent="NjmbRGrfVWamxlCIH4hR-84">
          <mxGeometry y="210" width="270" height="24" as="geometry" />
        </mxCell>
        <mxCell id="NjmbRGrfVWamxlCIH4hR-96" value="+ updateStore" style="text;strokeColor=none;fillColor=none;align=left;verticalAlign=top;spacingLeft=4;spacingRight=4;overflow=hidden;rotatable=0;points=[[0,0.5],[1,0.5]];portConstraint=eastwest;" vertex="1" parent="NjmbRGrfVWamxlCIH4hR-84">
          <mxGeometry y="234" width="270" height="24" as="geometry" />
        </mxCell>
        <mxCell id="NjmbRGrfVWamxlCIH4hR-103" value="1" style="edgeStyle=orthogonalEdgeStyle;rounded=0;orthogonalLoop=1;jettySize=auto;html=1;entryX=0.5;entryY=0;entryDx=0;entryDy=0;" edge="1" parent="WIyWlLk6GJQsqaUBKTNV-1" source="NjmbRGrfVWamxlCIH4hR-96" target="NjmbRGrfVWamxlCIH4hR-2">
          <mxGeometry x="-0.4614" relative="1" as="geometry">
            <mxPoint as="offset" />
          </mxGeometry>
        </mxCell>
        <mxCell id="NjmbRGrfVWamxlCIH4hR-104" value="M" style="text;html=1;resizable=0;autosize=1;align=center;verticalAlign=middle;points=[];fillColor=none;strokeColor=none;rounded=0;" vertex="1" parent="WIyWlLk6GJQsqaUBKTNV-1">
          <mxGeometry x="-375" y="-650" width="30" height="20" as="geometry" />
        </mxCell>
      </root>
    </mxGraphModel>
  </diagram>
</mxfile>
